<svg xmlns="http://www.w3.org/2000/svg" xmlns:xlink="http://www.w3.org/1999/xlink" version="1.1" width="256" height="256" viewBox="0 0 256 256" xml:space="preserve">

<defs>
</defs>
<g style="stroke: none; stroke-width: 0; stroke-dasharray: none; stroke-linecap: butt; stroke-linejoin: miter; stroke-miterlimit: 10; fill: none; fill-rule: nonzero; opacity: 1;" transform="translate(1.4065934065934016 1.4065934065934016) scale(2.81 2.81)" >
	<path d="M 62.2 65.25 H 27.799 c -4.012 0 -7.276 -3.28 -7.276 -7.312 V 38.154 c 0 -4.032 3.264 -7.312 7.276 -7.312 h 3.792 c 0.111 0 0.22 -0.02 0.325 -0.058 c 0.224 -0.082 0.411 -0.247 0.526 -0.463 l 0.703 -1.325 c 1.389 -2.619 4.086 -4.247 7.04 -4.247 h 10.12 c 2.953 0 5.65 1.627 7.04 4.247 l 0.703 1.326 c 0.171 0.321 0.496 0.52 0.85 0.52 H 62.2 c 4.013 0 7.277 3.28 7.277 7.312 v 19.784 c 0 2.448 -1.21 4.722 -3.237 6.082 C 65.042 64.824 63.646 65.25 62.2 65.25 z M 27.799 36.843 c -0.704 0 -1.276 0.588 -1.276 1.312 v 19.784 c 0 0.724 0.573 1.312 1.276 1.312 H 62.2 c 0.253 0 0.487 -0.071 0.695 -0.211 c 0.365 -0.245 0.582 -0.656 0.582 -1.101 V 38.154 c 0 -0.723 -0.573 -1.312 -1.277 -1.312 h -3.304 c -2.579 0 -4.937 -1.421 -6.15 -3.708 l -0.002 -0.002 l -0.702 -1.325 c -0.345 -0.652 -1.012 -1.057 -1.738 -1.057 h -10.12 c -0.727 0 -1.393 0.405 -1.739 1.058 l -0.703 1.325 c -0.81 1.527 -2.147 2.695 -3.766 3.288 c -0.768 0.28 -1.57 0.422 -2.385 0.422 H 27.799 z" style="stroke: none; stroke-width: 1; stroke-dasharray: none; stroke-linecap: butt; stroke-linejoin: miter; stroke-miterlimit: 10; fill: rgb(255, 255, 255); fill-rule: nonzero; opacity: 1;" transform=" matrix(1 0 0 1 0 0) " stroke-linecap="round" />
	<path d="M 53.871 46.12 c 0 1.174 -0.224 2.295 -0.632 3.322 c -0.45 1.134 -1.124 2.153 -1.966 3.002 c -1.605 1.618 -3.823 2.619 -6.273 2.619 c -4.899 0 -8.871 -4.004 -8.871 -8.943 c 0 -2.47 0.993 -4.705 2.598 -6.324 c 0.842 -0.849 1.853 -1.528 2.978 -1.982 c 1.019 -0.411 2.131 -0.637 3.295 -0.637 C 49.899 37.177 53.871 41.181 53.871 46.12 z" style="stroke: none; stroke-width: 1; stroke-dasharray: none; stroke-linecap: butt; stroke-linejoin: miter; stroke-miterlimit: 10; fill: rgb(255, 255, 255); fill-rule: nonzero; opacity: 1;" transform=" matrix(1 0 0 1 0 0) " stroke-linecap="round" />
	<path d="M 75.574 90 H 14.425 C 6.471 90 0 83.528 0 75.574 V 14.425 C 0 6.471 6.471 0 14.425 0 h 61.149 C 83.528 0 90 6.471 90 14.425 v 61.149 C 90 83.528 83.528 90 75.574 90 z M 14.425 6 C 9.78 6 6 9.78 6 14.425 v 61.149 C 6 80.221 9.78 84 14.425 84 h 61.149 C 80.221 84 84 80.221 84 75.574 V 14.425 C 84 9.78 80.221 6 75.574 6 H 14.425 z" style="stroke: none; stroke-width: 1; stroke-dasharray: none; stroke-linecap: butt; stroke-linejoin: miter; stroke-miterlimit: 10; fill: rgb(255, 255, 255); fill-rule: nonzero; opacity: 1;" transform=" matrix(1 0 0 1 0 0) " stroke-linecap="round" />
</g>
</svg>